<svg data-v-423bf9ae="" xmlns="http://www.w3.org/2000/svg" viewBox="0 0 537 90" class="iconLeftSlogan"><!----><!----><!----><g data-v-423bf9ae="" id="15f59da6-a789-4374-88ff-9ad17ed37ed2" fill="#C6565B" transform="matrix(5.6553754806518555,0,0,5.6553754806518555,107.61412811279297,-38.35051345825195)"><path d="M0.77 14.90L0.77 14.90Q2.14 15.32 3.58 15.32L3.58 15.32L3.58 15.32Q4.31 15.32 4.83 15.23L4.83 15.23L4.83 14.03L3.56 13.92L3.56 13.92Q2.42 13.82 1.77 13.53L1.77 13.53L1.77 13.53Q1.12 13.24 0.83 12.71L0.83 12.71L0.83 12.71Q0.55 12.17 0.55 11.26L0.55 11.26L0.55 11.26Q0.55 10.12 0.86 9.46L0.86 9.46L0.86 9.46Q1.18 8.81 1.89 8.51L1.89 8.51L1.89 8.51Q2.60 8.22 3.84 8.22L3.84 8.22L3.84 8.22Q5.46 8.22 7.01 8.60L7.01 8.60L6.71 10.57L6.71 10.57Q5.99 10.43 5.47 10.37L5.47 10.37L5.47 10.37Q4.94 10.30 4.37 10.30L4.37 10.30L4.37 10.30Q3.65 10.30 3.19 10.37L3.19 10.37L3.19 11.58L4.34 11.68L4.34 11.68Q6.02 11.83 6.75 12.48L6.75 12.48L6.75 12.48Q7.48 13.13 7.48 14.49L7.48 14.49L7.48 14.49Q7.48 16.02 6.63 16.70L6.63 16.70L6.63 16.70Q5.78 17.39 3.88 17.39L3.88 17.39L3.88 17.39Q2.02 17.39 0.42 16.93L0.42 16.93L0.77 14.90ZM16.30 10.18L18.70 10.18L17.29 17.18L14.01 17.18L13.33 13.85L12.63 17.18L9.35 17.18L7.94 10.18L10.35 10.18L11.19 15.04L11.33 15.04L12.28 10.18L14.36 10.18L15.32 15.04L15.46 15.04L16.30 10.18ZM19.47 17.18L19.47 17.18ZM19.59 10.47L22.05 10.15L22.05 17.18L19.59 17.18L19.59 10.47ZM20.80 9.44L20.80 9.44Q20.27 9.44 19.99 9.32L19.99 9.32L19.99 9.32Q19.71 9.21 19.59 8.93L19.59 8.93L19.59 8.93Q19.47 8.65 19.47 8.12L19.47 8.12L19.47 8.12Q19.47 7.35 19.75 7.06L19.75 7.06L19.75 7.06Q20.03 6.78 20.80 6.78L20.80 6.78L20.80 6.78Q21.57 6.78 21.85 7.06L21.85 7.06L21.85 7.06Q22.13 7.35 22.13 8.12L22.13 8.12L22.13 8.12Q22.13 8.89 21.85 9.16L21.85 9.16L21.85 9.16Q21.57 9.44 20.80 9.44L20.80 9.44ZM27.83 9.39L26.60 9.28L26.60 10.18L27.51 10.18L27.51 11.79L26.60 11.79L26.60 17.18L24.14 17.18L24.14 11.79L23.37 11.79L23.37 10.18L24.14 10.18L24.14 10.18Q24.18 9.24 24.41 8.71L24.41 8.71L24.41 8.71Q24.64 8.19 25.14 7.96L25.14 7.96L25.14 7.96Q25.63 7.73 26.49 7.73L26.49 7.73L26.49 7.73Q27.15 7.73 27.97 7.87L27.97 7.87L27.83 9.39ZM32.45 11.79L31.42 11.79L31.42 15.41L31.42 15.41Q31.86 15.48 32.28 15.50L32.28 15.50L32.17 17.16L32.17 17.16Q31.23 17.37 30.58 17.37L30.58 17.37L30.58 17.37Q29.75 17.37 29.35 17.03L29.35 17.03L29.35 17.03Q28.95 16.69 28.95 15.96L28.95 15.96L28.95 11.79L28.18 11.79L28.18 10.18L28.95 10.18L28.95 8.97L31.42 8.36L31.42 10.18L32.45 10.18L32.45 11.79ZM39.63 17.02L39.63 17.02Q39.10 17.22 38.50 17.30L38.50 17.30L38.50 17.30Q37.90 17.39 37.09 17.39L37.09 17.39L37.09 17.39Q35.64 17.39 34.85 16.97L34.85 16.97L34.85 16.97Q34.06 16.55 33.73 15.58L33.73 15.58L33.73 15.58Q33.40 14.60 33.40 12.81L33.40 12.81L33.40 12.81Q33.40 11.00 33.76 10.02L33.76 10.02L33.76 10.02Q34.12 9.04 34.96 8.63L34.96 8.63L34.96 8.63Q35.80 8.22 37.34 8.22L37.34 8.22L37.34 8.22Q37.91 8.22 38.59 8.32L38.59 8.32L38.59 8.32Q39.27 8.43 39.59 8.57L39.59 8.57L39.28 10.53L39.28 10.53Q38.86 10.40 38.33 10.33L38.33 10.33L38.33 10.33Q37.79 10.26 37.42 10.26L37.42 10.26L37.42 10.26Q36.64 10.26 36.34 10.47L36.34 10.47L36.34 10.47Q36.05 10.68 36.05 11.26L36.05 11.26L36.05 15.16L36.05 15.16Q36.75 15.30 37.30 15.30L37.30 15.30L37.30 15.30Q37.87 15.30 38.44 15.21L38.44 15.21L38.44 15.21Q39.02 15.12 39.45 14.97L39.45 14.97L39.63 17.02ZM44.00 17.37L44.00 17.37Q42.73 17.37 41.96 17.00L41.96 17.00L41.96 17.00Q41.19 16.62 40.82 15.81L40.82 15.81L40.82 15.81Q40.46 15.01 40.46 13.68L40.46 13.68L40.46 13.68Q40.46 12.35 40.82 11.54L40.82 11.54L40.82 11.54Q41.19 10.72 41.96 10.35L41.96 10.35L41.96 10.35Q42.73 9.98 44.00 9.98L44.00 9.98L44.00 9.98Q45.29 9.98 46.07 10.35L46.07 10.35L46.07 10.35Q46.84 10.72 47.20 11.54L47.20 11.54L47.20 11.54Q47.56 12.35 47.56 13.68L47.56 13.68L47.56 13.68Q47.56 15.01 47.19 15.81L47.19 15.81L47.19 15.81Q46.83 16.62 46.05 17.00L46.05 17.00L46.05 17.00Q45.28 17.37 44.00 17.37L44.00 17.37ZM43.11 15.50L44.35 15.50L44.35 15.50Q44.69 15.50 44.81 15.42L44.81 15.42L44.81 15.42Q44.93 15.34 44.93 15.12L44.93 15.12L44.93 11.86L43.68 11.86L43.68 11.86Q43.34 11.86 43.23 11.94L43.23 11.94L43.23 11.94Q43.11 12.01 43.11 12.24L43.11 12.24L43.11 15.50ZM55.51 10.18L55.51 17.18L54.29 17.18L53.68 16.48L53.68 16.48Q52.49 17.37 50.89 17.37L50.89 17.37L50.89 17.37Q49.83 17.37 49.34 16.92L49.34 16.92L49.34 16.92Q48.85 16.46 48.85 15.47L48.85 15.47L48.85 10.18L51.31 10.18L51.31 15.68L52.35 15.68L52.35 15.68Q52.74 15.68 52.89 15.57L52.89 15.57L52.89 15.57Q53.05 15.46 53.05 15.19L53.05 15.19L53.05 10.18L55.51 10.18ZM58.39 10.18L59.09 11.14L59.09 11.14Q60.03 10.23 61.14 9.97L61.14 9.97L61.29 12.36L61.29 12.36Q60.93 12.42 60.41 12.62L60.41 12.62L60.41 12.62Q59.89 12.82 59.64 13.01L59.64 13.01L59.64 17.18L57.18 17.18L57.18 10.18L58.39 10.18ZM61.92 12.26L61.92 12.26Q61.92 11.07 62.65 10.52L62.65 10.52L62.65 10.52Q63.38 9.97 64.93 9.97L64.93 9.97L64.93 9.97Q66.43 9.97 67.79 10.28L67.79 10.28L67.49 11.98L67.49 11.98Q66.82 11.80 65.84 11.80L65.84 11.80L65.84 11.80Q65.10 11.80 64.57 11.93L64.57 11.93L64.57 12.71L64.57 12.71Q65.95 12.87 66.72 13.13L66.72 13.13L66.72 13.13Q67.48 13.40 67.81 13.85L67.81 13.85L67.81 13.85Q68.14 14.31 68.14 15.05L68.14 15.05L68.14 15.05Q68.14 16.28 67.33 16.84L67.33 16.84L67.33 16.84Q66.53 17.39 64.75 17.39L64.75 17.39L64.75 17.39Q63.98 17.39 63.21 17.27L63.21 17.27L63.21 17.27Q62.44 17.15 61.81 16.93L61.81 16.93L62.13 15.13L62.13 15.13Q63.17 15.55 64.39 15.55L64.39 15.55L64.39 15.55Q64.82 15.55 65.49 15.43L65.49 15.43L65.49 14.62L65.49 14.62Q64.01 14.45 63.26 14.20L63.26 14.20L63.26 14.20Q62.51 13.96 62.22 13.52L62.22 13.52L62.22 13.52Q61.92 13.08 61.92 12.26L61.92 12.26ZM72.80 15.55L72.80 15.55Q73.99 15.55 75.28 15.19L75.28 15.19L75.59 16.91L75.59 16.91Q74.20 17.37 72.53 17.37L72.53 17.37L72.53 17.37Q70.69 17.37 69.87 16.51L69.87 16.51L69.87 16.51Q69.06 15.65 69.06 13.68L69.06 13.68L69.06 13.68Q69.06 11.72 69.89 10.85L69.89 10.85L69.89 10.85Q70.73 9.98 72.59 9.98L72.59 9.98L72.59 9.98Q73.84 9.98 74.52 10.19L74.52 10.19L74.52 10.19Q75.19 10.40 75.48 10.89L75.48 10.89L75.48 10.89Q75.77 11.38 75.77 12.29L75.77 12.29L75.77 12.29Q75.77 13.19 75.40 13.68L75.40 13.68L75.40 13.68Q75.04 14.17 74.17 14.38L74.17 14.38L74.17 14.38Q73.30 14.59 71.71 14.59L71.71 14.59L71.71 15.47L71.71 15.47Q72.10 15.55 72.80 15.55L72.80 15.55ZM72.72 11.80L72.72 11.80Q72.14 11.80 71.92 11.93L71.92 11.93L71.92 11.93Q71.71 12.05 71.71 12.40L71.71 12.40L71.71 13.30L72.53 13.30L72.53 13.30Q73.11 13.30 73.33 13.17L73.33 13.17L73.33 13.17Q73.54 13.03 73.54 12.67L73.54 12.67L73.54 11.80L72.72 11.80Z"></path></g><!----><g data-v-423bf9ae="" id="a01da98a-51df-4540-86e0-1e1578f7e251" transform="matrix(1.3235293626785278,0,0,1.3235293626785278,0.0000016689300537109375,0.0000016689300537109375)" stroke="none" fill="#C6565B"><path d="M9 18A9 9 0 1 1 9 0a9 9 0 0 1 0 18zm0-4A5 5 0 1 0 9 4a5 5 0 0 0 0 10zm0 54a9 9 0 1 1 0-18 9 9 0 0 1 0 18zm0-4a5 5 0 1 0 0-10 5 5 0 0 0 0 10zm25 4a9 9 0 1 1 0-18 9 9 0 0 1 0 18zm0-4a5 5 0 1 0 0-10 5 5 0 0 0 0 10zm25 4a9 9 0 1 1 0-18 9 9 0 0 1 0 18zm0-4a5 5 0 1 0 0-10 5 5 0 0 0 0 10zM22 36v10a2 2 0 0 1-4 0V34a2 2 0 0 1 2-2h19a3 3 0 0 0 0-6H8a4 4 0 0 0-4 4v16a2 2 0 0 1-4 0V30a8 8 0 0 1 8-8h31a7 7 0 0 1 0 14H22zm2-30a2 2 0 0 1 0-4h38a6 6 0 0 1 6 6v26a6 6 0 0 1-6 6H52a2 2 0 0 1 0-4h10a2 2 0 0 0 2-2V8a2 2 0 0 0-2-2H24z"></path></g><!----><g data-v-423bf9ae="" id="abe48cfa-3ad1-4c63-934e-cfff7e249e49" fill="#C6565B" transform="matrix(0.5048958659172058,0,0,0.5048958659172058,109.98028564453125,58.93893051147461)"><path d="M5.29 2.21L3.98 2.21L0.04 11.48L1.20 11.48L2.34 8.79L6.93 8.79L8.06 11.48L9.23 11.48ZM2.74 7.83L4.63 3.30L6.52 7.83ZM34.08 3.22L34.08 2.21L27.38 2.21L27.38 11.48L28.43 11.48L28.43 7.46L33.46 7.46L33.46 6.44L28.43 6.44L28.43 3.22ZM45.95 2.21L44.63 2.21L40.70 11.48L41.86 11.48L42.99 8.79L47.59 8.79L48.72 11.48L49.88 11.48ZM43.40 7.83L45.29 3.30L47.18 7.83ZM58.67 4.65C58.67 4.03 59.04 3.08 61.14 3.08C62.83 3.08 63.62 3.82 63.73 4.75L64.81 4.75C64.72 3.36 63.60 2.10 61.14 2.10C58.81 2.10 57.65 3.15 57.65 4.66C57.65 7.84 63.99 6.69 63.99 8.96C63.99 10.05 63.01 10.60 61.45 10.60C59.84 10.60 58.53 10.05 58.46 8.71L57.37 8.71C57.51 10.37 58.63 11.59 61.38 11.59C63.66 11.59 65.04 10.64 65.04 8.92C65.04 5.68 58.67 6.80 58.67 4.65ZM80.25 2.21L72.73 2.21L72.73 3.22L75.96 3.22L75.96 11.48L77.01 11.48L77.01 3.22L80.25 3.22ZM102.72 2.21L101.40 2.21L97.47 11.48L98.63 11.48L99.76 8.79L104.36 8.79L105.49 11.48L106.65 11.48ZM100.17 7.83L102.06 3.30L103.95 7.83ZM121.77 2.21L121.77 10.01L116.05 2.21L114.83 2.21L114.83 11.48L115.88 11.48L115.88 3.65L121.60 11.48L122.82 11.48L122.82 2.21ZM136.00 2.21L132.09 2.21L132.09 11.48L136.00 11.48C138.21 11.48 140.25 9.74 140.25 6.85C140.25 3.95 138.21 2.21 136.00 2.21ZM135.95 10.49L133.14 10.49L133.14 3.21L135.95 3.21C137.93 3.21 139.20 4.86 139.20 6.85C139.20 8.83 137.93 10.49 135.95 10.49ZM163.09 2.21L161.77 2.21L157.84 11.48L159.00 11.48L160.13 8.79L164.72 8.79L165.86 11.48L167.02 11.48ZM160.54 7.83L162.43 3.30L164.32 7.83ZM181.89 3.22L181.89 2.21L175.20 2.21L175.20 11.48L176.25 11.48L176.25 7.46L181.27 7.46L181.27 6.44L176.25 6.44L176.25 3.22ZM197.05 3.22L197.05 2.21L190.36 2.21L190.36 11.48L191.41 11.48L191.41 7.46L196.43 7.46L196.43 6.44L191.41 6.44L191.41 3.22ZM209.64 2.10C206.82 2.10 204.93 4.21 204.93 6.85C204.93 9.48 206.82 11.59 209.64 11.59C212.45 11.59 214.34 9.48 214.34 6.85C214.34 4.21 212.45 2.10 209.64 2.10ZM209.64 10.57C207.38 10.57 205.98 8.93 205.98 6.85C205.98 4.76 207.38 3.12 209.64 3.12C211.89 3.12 213.29 4.76 213.29 6.85C213.29 8.93 211.89 10.57 209.64 10.57ZM224.07 7.92L227.29 7.92L229.53 11.48L230.78 11.48L228.34 7.74C229.38 7.50 230.58 6.90 230.58 5.11C230.58 3.35 229.36 2.21 227.46 2.21L223.02 2.21L223.02 11.48L224.07 11.48ZM224.07 3.21L227.33 3.21C228.65 3.21 229.53 3.93 229.53 5.11C229.53 6.55 228.27 6.93 227.28 6.93L224.07 6.93ZM243.29 2.21L239.39 2.21L239.39 11.48L243.29 11.48C245.50 11.48 247.55 9.74 247.55 6.85C247.55 3.95 245.50 2.21 243.29 2.21ZM243.25 10.49L240.44 10.49L240.44 3.21L243.25 3.21C245.22 3.21 246.50 4.86 246.50 6.85C246.50 8.83 245.22 10.49 243.25 10.49ZM260.22 2.21L258.90 2.21L254.97 11.48L256.13 11.48L257.26 8.79L261.86 8.79L262.99 11.48L264.15 11.48ZM257.67 7.83L259.56 3.30L261.45 7.83ZM278.17 6.75C278.82 6.45 279.41 5.85 279.41 4.66C279.41 3.54 278.67 2.21 276.49 2.21L272.33 2.21L272.33 11.48L276.72 11.48C278.84 11.48 279.89 10.43 279.89 9.04C279.89 7.66 278.95 7 278.17 6.75ZM273.38 3.21L276.60 3.21C277.87 3.21 278.36 3.98 278.36 4.75C278.36 5.88 277.45 6.36 276.49 6.36L273.38 6.36ZM276.84 10.49L273.38 10.49L273.38 7.31L276.72 7.31C278.19 7.31 278.84 8.09 278.84 8.96C278.84 9.93 278.11 10.49 276.84 10.49ZM288.60 2.21L288.60 11.48L294.70 11.48L294.70 10.47L289.65 10.47L289.65 2.21ZM309.88 3.22L309.88 2.21L303.06 2.21L303.06 11.48L309.88 11.48L309.88 10.47L304.11 10.47L304.11 7.35L309.26 7.35L309.26 6.33L304.11 6.33L304.11 3.22ZM332.67 2.10C329.85 2.10 327.96 4.21 327.96 6.85C327.96 9.48 329.85 11.59 332.67 11.59C335.48 11.59 337.37 9.48 337.37 6.85C337.37 4.21 335.48 2.10 332.67 2.10ZM332.67 10.57C330.41 10.57 329.01 8.93 329.01 6.85C329.01 4.76 330.41 3.12 332.67 3.12C334.92 3.12 336.32 4.76 336.32 6.85C336.32 8.93 334.92 10.57 332.67 10.57ZM353.00 2.21L353.00 10.01L347.27 2.21L346.05 2.21L346.05 11.48L347.10 11.48L347.10 3.65L352.83 11.48L354.05 11.48L354.05 2.21ZM363.31 2.21L363.31 11.48L369.42 11.48L369.42 10.47L364.36 10.47L364.36 2.21ZM378.83 2.21L377.78 2.21L377.78 11.48L378.83 11.48ZM395.04 2.21L395.04 10.01L389.31 2.21L388.09 2.21L388.09 11.48L389.14 11.48L389.14 3.65L394.87 11.48L396.09 11.48L396.09 2.21ZM412.17 3.22L412.17 2.21L405.36 2.21L405.36 11.48L412.17 11.48L412.17 10.47L406.41 10.47L406.41 7.35L411.56 7.35L411.56 6.33L406.41 6.33L406.41 3.22ZM434.83 10.57C432.57 10.57 431.31 8.93 431.31 6.85C431.31 4.76 432.57 3.12 434.83 3.12C436.35 3.12 437.36 3.85 437.84 4.98L438.94 4.98C438.35 3.29 436.84 2.10 434.74 2.10C431.96 2.10 430.26 4.21 430.26 6.85C430.26 9.48 431.96 11.59 434.74 11.59C436.84 11.59 438.35 10.40 438.94 8.71L437.84 8.71C437.36 9.84 436.35 10.57 434.83 10.57ZM447.51 2.21L447.51 11.48L453.61 11.48L453.61 10.47L448.56 10.47L448.56 2.21ZM466.13 2.21L464.81 2.21L460.88 11.48L462.04 11.48L463.18 8.79L467.77 8.79L468.90 11.48L470.06 11.48ZM463.58 7.83L465.47 3.30L467.36 7.83ZM478.86 4.65C478.86 4.03 479.22 3.08 481.32 3.08C483.01 3.08 483.80 3.82 483.91 4.75L484.99 4.75C484.90 3.36 483.78 2.10 481.32 2.10C479.00 2.10 477.83 3.15 477.83 4.66C477.83 7.84 484.18 6.69 484.18 8.96C484.18 10.05 483.20 10.60 481.63 10.60C480.02 10.60 478.72 10.05 478.65 8.71L477.55 8.71C477.69 10.37 478.81 11.59 481.56 11.59C483.84 11.59 485.23 10.64 485.23 8.92C485.23 5.68 478.86 6.80 478.86 4.65ZM494.47 4.65C494.47 4.03 494.83 3.08 496.93 3.08C498.62 3.08 499.41 3.82 499.52 4.75L500.60 4.75C500.51 3.36 499.39 2.10 496.93 2.10C494.61 2.10 493.44 3.15 493.44 4.66C493.44 7.84 499.79 6.69 499.79 8.96C499.79 10.05 498.81 10.60 497.24 10.60C495.63 10.60 494.33 10.05 494.26 8.71L493.16 8.71C493.30 10.37 494.42 11.59 497.17 11.59C499.45 11.59 500.84 10.64 500.84 8.92C500.84 5.68 494.47 6.80 494.47 4.65ZM510.51 7.92L513.73 7.92L515.97 11.48L517.22 11.48L514.78 7.74C515.82 7.50 517.02 6.90 517.02 5.11C517.02 3.35 515.80 2.21 513.90 2.21L509.46 2.21L509.46 11.48L510.51 11.48ZM510.51 3.21L513.77 3.21C515.09 3.21 515.97 3.93 515.97 5.11C515.97 6.55 514.71 6.93 513.72 6.93L510.51 6.93ZM529.94 2.10C527.13 2.10 525.24 4.21 525.24 6.85C525.24 9.48 527.13 11.59 529.94 11.59C532.76 11.59 534.65 9.48 534.65 6.85C534.65 4.21 532.76 2.10 529.94 2.10ZM529.94 10.57C527.69 10.57 526.29 8.93 526.29 6.85C526.29 4.76 527.69 3.12 529.94 3.12C532.20 3.12 533.60 4.76 533.60 6.85C533.60 8.93 532.20 10.57 529.94 10.57ZM547.44 2.10C544.63 2.10 542.74 4.21 542.74 6.85C542.74 9.48 544.63 11.59 547.44 11.59C550.26 11.59 552.15 9.48 552.15 6.85C552.15 4.21 550.26 2.10 547.44 2.10ZM547.44 10.57C545.19 10.57 543.79 8.93 543.79 6.85C543.79 4.76 545.19 3.12 547.44 3.12C549.70 3.12 551.10 4.76 551.10 6.85C551.10 8.93 549.70 10.57 547.44 10.57ZM568.62 2.21L565.36 6.61L562.04 2.21L560.83 2.21L560.83 11.48L561.88 11.48L561.88 3.81L565.36 8.22L568.79 3.81L568.79 11.48L569.84 11.48L569.84 2.21ZM589.71 4.65C589.71 4.03 590.07 3.08 592.17 3.08C593.87 3.08 594.65 3.82 594.76 4.75L595.84 4.75C595.76 3.36 594.64 2.10 592.17 2.10C589.85 2.10 588.69 3.15 588.69 4.66C588.69 7.84 595.03 6.69 595.03 8.96C595.03 10.05 594.05 10.60 592.48 10.60C590.87 10.60 589.57 10.05 589.50 8.71L588.41 8.71C588.55 10.37 589.67 11.59 592.41 11.59C594.69 11.59 596.08 10.64 596.08 8.92C596.08 5.68 589.71 6.80 589.71 4.65ZM608.31 7.81L612.19 2.21L610.92 2.21L607.78 6.72L604.65 2.21L603.37 2.21L607.26 7.81L607.26 11.48L608.31 11.48ZM620.79 4.65C620.79 4.03 621.15 3.08 623.25 3.08C624.95 3.08 625.73 3.82 625.84 4.75L626.92 4.75C626.84 3.36 625.72 2.10 623.25 2.10C620.93 2.10 619.77 3.15 619.77 4.66C619.77 7.84 626.11 6.69 626.11 8.96C626.11 10.05 625.13 10.60 623.56 10.60C621.95 10.60 620.65 10.05 620.58 8.71L619.49 8.71C619.63 10.37 620.75 11.59 623.49 11.59C625.77 11.59 627.16 10.64 627.16 8.92C627.16 5.68 620.79 6.80 620.79 4.65ZM642.36 2.21L634.84 2.21L634.84 3.22L638.08 3.22L638.08 11.48L639.13 11.48L639.13 3.22L642.36 3.22ZM657.51 3.22L657.51 2.21L650.69 2.21L650.69 11.48L657.51 11.48L657.51 10.47L651.74 10.47L651.74 7.35L656.89 7.35L656.89 6.33L651.74 6.33L651.74 3.22ZM674.00 2.21L670.74 6.61L667.42 2.21L666.20 2.21L666.20 11.48L667.25 11.48L667.25 3.81L670.74 8.22L674.17 3.81L674.17 11.48L675.22 11.48L675.22 2.21Z"></path></g></svg>